<?xml version="1.0" encoding="UTF-8"?>
<svg version="1.1" xmlns="http://www.w3.org/2000/svg" width="512" height="512">
<path d="M0 0 C0.86061035 0.16628906 1.7212207 0.33257812 2.60791016 0.50390625 C34.69275447 6.93636065 64.87835367 20.9358017 90 42 C90.53077148 42.4434375 91.06154297 42.886875 91.60839844 43.34375 C111.14762591 59.717047 127.73224445 78.53069916 140 101 C140.33837891 101.61633301 140.67675781 102.23266602 141.02539062 102.86767578 C166.24121467 149.4301654 172.38889526 205.63710049 157.73876953 256.53076172 C153.93038433 269.25977954 149.36941155 281.36743825 143.04589844 293.06445312 C141.98438143 295.02890383 140.94952514 297.00609129 139.9140625 298.984375 C132.90448098 312.13093624 124.15497482 323.9491922 114 334.84765625 C112.15918281 336.82869194 110.42275357 338.86437254 108.6875 340.9375 C77.22136342 376.88846524 27.72887714 398.62897969 -19.25244141 402.83227539 C-25.24677533 403.19819928 -31.24609049 403.24479662 -37.25 403.25 C-38.30630112 403.25101212 -38.30630112 403.25101212 -39.38394165 403.25204468 C-51.78566644 403.23328155 -63.81234038 402.37899369 -76 400 C-76.86061035 399.83371094 -77.7212207 399.66742188 -78.60791016 399.49609375 C-132.29866322 388.73202965 -178.45884782 356.07535329 -209 311 C-211.9060109 306.42679149 -214.50857526 301.71127884 -217.00292969 296.90332031 C-217.97396055 295.04970704 -218.98588646 293.22437157 -220.0078125 291.3984375 C-229.77251178 273.49569377 -235.72025666 253.06678914 -239 233 C-239.22300781 231.74058594 -239.44601563 230.48117187 -239.67578125 229.18359375 C-242.91838863 207.32356715 -242.22536193 183.64666224 -238 162 C-237.83371094 161.13938965 -237.66742188 160.2787793 -237.49609375 159.39208984 C-233.52089445 139.56394298 -226.64529961 120.75655555 -217 103 C-216.38640625 101.8346875 -215.7728125 100.669375 -215.140625 99.46875 C-208.31269092 86.94146599 -199.71962234 75.5835813 -190 65.15234375 C-188.15918281 63.17130806 -186.42275357 61.13562746 -184.6875 59.0625 C-156.2591905 26.67499671 -112.96165277 6.01910965 -71 -1 C-69.10507812 -1.33644531 -69.10507812 -1.33644531 -67.171875 -1.6796875 C-45.31029309 -4.91024515 -21.64744738 -4.22551518 0 0 Z " fill="#1E88E4" transform="translate(294,56)"/>
<path d="M0 0 C0.86061035 0.16628906 1.7212207 0.33257812 2.60791016 0.50390625 C34.69275447 6.93636065 64.87835367 20.9358017 90 42 C90.53077148 42.4434375 91.06154297 42.886875 91.60839844 43.34375 C121.28278053 68.21000799 141.91033503 98.6352745 155 135 C155 135.33 155 135.66 155 136 C27.62 136 -99.76 136 -231 136 C-226.83858133 124.20931376 -222.80672698 113.81146617 -217 103 C-216.68836914 102.40622559 -216.37673828 101.81245117 -216.05566406 101.20068359 C-209.09310969 87.98656586 -200.17273209 76.06986515 -190 65.15234375 C-188.15918281 63.17130806 -186.42275357 61.13562746 -184.6875 59.0625 C-156.2591905 26.67499671 -112.96165277 6.01910965 -71 -1 C-69.10507812 -1.33644531 -69.10507812 -1.33644531 -67.171875 -1.6796875 C-45.31029309 -4.91024515 -21.64744738 -4.22551518 0 0 Z " fill="#1565C0" transform="translate(294,56)"/>
<path d="M0 0 C118.14 0 236.28 0 358 0 C354.16118157 7.67763687 350.76186 14.31254582 345.75 21.0625 C345.18716309 21.83126465 344.62432617 22.6000293 344.04443359 23.39208984 C339.39902179 29.65043703 334.36555963 35.34699968 329 41 C327.86883588 42.32810787 326.74341003 43.66113414 325.625 45 C294.23294746 80.9394994 244.64891747 102.63613347 197.74755859 106.83227539 C191.75322467 107.19819928 185.75390951 107.24479662 179.75 107.25 C178.69369888 107.25101212 178.69369888 107.25101212 177.61605835 107.25204468 C165.21433356 107.23328155 153.18765962 106.37899369 141 104 C140.13938965 103.83371094 139.2787793 103.66742188 138.39208984 103.49609375 C84.61515555 92.71475181 38.6632375 60.04972458 8 15 C0 2.42738302 0 2.42738302 0 0 Z " fill="#1976D2" transform="translate(77,352)"/>
<path d="M0 0 C0.86061035 0.16628906 1.7212207 0.33257812 2.60791016 0.50390625 C34.70982268 6.93978253 64.85193083 20.94981517 90 42 C90.53608887 42.4434375 91.07217773 42.886875 91.62451172 43.34375 C93.48614143 44.8873199 95.33815081 46.44174317 97.1875 48 C97.77047852 48.48662109 98.35345703 48.97324219 98.95410156 49.47460938 C103.18425331 53.085303 106.29108462 56.67293206 110 61 C12.32 61 -85.36 61 -186 61 C-157.29978081 27.51641094 -114.10201872 6.20986366 -71 -1 C-69.73671875 -1.22429688 -68.4734375 -1.44859375 -67.171875 -1.6796875 C-45.31029309 -4.91024515 -21.64744738 -4.22551518 0 0 Z " fill="#1875D2" transform="translate(294,56)"/>
<path d="M0 0 C1.63070896 0.00056958 1.63070896 0.00056958 3.29436153 0.00115067 C4.5434082 -0.00084038 5.79245486 -0.00283143 7.07935143 -0.00488281 C8.48343913 -0.00202922 9.88752665 0.00091639 11.291614 0.00394398 C12.76915577 0.00350841 14.24669747 0.00263376 15.72423875 0.00135481 C19.8037526 -0.00089291 23.88324044 0.0031349 27.96275097 0.00813287 C32.35473081 0.01243324 36.74670906 0.01099125 41.13869041 0.0102306 C48.75451899 0.0097051 56.37033903 0.0128546 63.98616546 0.01846844 C74.99750413 0.02657994 86.00883865 0.0291983 97.02017998 0.03045643 C114.88340101 0.0326475 132.74661749 0.03930908 150.60983604 0.04875904 C167.96693216 0.05793173 185.32402705 0.06501327 202.6811251 0.06926686 C203.7502068 0.06952958 204.81928849 0.0697923 205.9207666 0.07006299 C211.28379347 0.07136798 216.64682034 0.0726317 222.00984722 0.07387489 C266.53333298 0.08424922 311.05681377 0.10186903 355.58029503 0.1241985 C356.38785906 1.56732547 357.19415531 3.01116194 357.99991173 4.45529896 C358.44905308 5.25925948 358.89819443 6.06322001 359.36094612 6.89154297 C360.63406902 9.2226599 361.75846615 11.56850055 362.78342003 14.01872975 C363.12373253 14.82890553 363.46404503 15.63908131 363.81467003 16.47380787 C364.14982628 17.28656178 364.48498253 18.09931568 364.83029503 18.9366985 C365.18092003 19.76878834 365.53154503 20.60087818 365.89279503 21.45818287 C367.38450614 25.03542086 368.6360155 28.34708039 369.58029503 32.1241985 C242.20029503 32.1241985 114.82029503 32.1241985 -16.41970497 32.1241985 C-5.17551081 0.26564836 -5.17551081 0.26564836 0 0 Z " fill="#1875D2" transform="translate(79.41970497369766,159.8758015036583)"/>
<path d="M0 0 C50.16 0 100.32 0 152 0 C120.24988204 37.04180429 70.93834975 59.52077133 22.74755859 63.83227539 C16.75322467 64.19819928 10.75390951 64.24479662 4.75 64.25 C3.69369888 64.25101212 3.69369888 64.25101212 2.61605835 64.25204468 C-9.78566644 64.23328155 -21.81234038 63.37899369 -34 61 C-34.86061035 60.83371094 -35.7212207 60.66742188 -36.60791016 60.49609375 C-65.86439148 54.63067704 -98.62382159 42.59617714 -120 21 C-119.11016403 20.99641747 -119.11016403 20.99641747 -118.20235157 20.99276257 C-103.76328672 20.93360873 -89.32437644 20.85805624 -74.88549519 20.76428509 C-67.90292686 20.71933269 -60.92040948 20.67991682 -53.93774414 20.65356445 C-47.20086576 20.62812409 -40.46424448 20.58721578 -33.72749901 20.53681374 C-31.15548709 20.52011059 -28.58343594 20.50861785 -26.01137733 20.50238609 C-22.41269727 20.4927828 -18.81460139 20.46476735 -15.21606445 20.43237305 C-14.14935516 20.43380814 -13.08264587 20.43524323 -11.98361206 20.4367218 C-4.9842458 20.40195722 -4.9842458 20.40195722 1 17 C3.32826375 13.78477863 3.39711181 10.89169575 3 7 C1.57378316 4.28873616 1.57378316 4.28873616 0 2 C0 1.34 0 0.68 0 0 Z " fill="#1875D2" transform="translate(252,395)"/>
<path d="M0 0 C1.3921875 0.928125 1.3921875 0.928125 2.8125 1.875 C6.92660608 5.87156019 10.2624809 10.22095368 10.5 16.125 C9.67765203 22.49819679 7.04971522 26.76509711 2.46484375 31.13671875 C-6.64599823 38.02399549 -18.00124049 42.32776617 -29 45 C-30.67835938 45.44666016 -30.67835938 45.44666016 -32.390625 45.90234375 C-42.66176278 48.19538583 -52.89877596 48.26398415 -63.375 48.25 C-64.1122934 48.24931519 -64.84958679 48.24863037 -65.60922241 48.2479248 C-78.11885004 48.20968235 -89.90068716 47.67187694 -102 44.25 C-102.95970703 43.98268066 -103.91941406 43.71536133 -104.90820312 43.43994141 C-114.00279377 40.83552515 -122.3330223 37.65895973 -130 32 C-130.86625 31.401875 -131.7325 30.80375 -132.625 30.1875 C-137.14430534 26.02498193 -139.22402976 22.13300297 -139.625 16.0625 C-139.32304846 9.42963116 -135.94513004 5.76481596 -131.27734375 1.3828125 C-121.15272956 -6.91464202 -108.56857405 -10.39930544 -96 -13 C-95.30277832 -13.15098145 -94.60555664 -13.30196289 -93.88720703 -13.45751953 C-64.33035128 -19.72879563 -25.49537761 -17.67349477 0 0 Z " fill="#1565C0" transform="translate(310,261)"/>
<path d="M0 0 C1.53834914 -0.01571004 1.53834914 -0.01571004 3.10777605 -0.03173745 C6.54925194 -0.06177539 9.99013411 -0.06314851 13.43173218 -0.06448364 C15.89735927 -0.07972439 18.36297685 -0.09657897 20.82858276 -0.1149292 C27.53133427 -0.15886332 34.2338466 -0.17646708 40.93670702 -0.18658209 C45.1250843 -0.19310153 49.31342493 -0.20614996 53.50178146 -0.22058487 C65.10675432 -0.25971545 76.71169314 -0.29252358 88.31673622 -0.29833794 C89.05913147 -0.29871308 89.80152672 -0.29908822 90.56641879 -0.29947472 C92.0713338 -0.30020721 93.57624882 -0.30093461 95.08116384 -0.30165695 C95.82816975 -0.30202257 96.57517566 -0.30238819 97.34481812 -0.30276489 C98.09274012 -0.30312599 98.84066212 -0.30348709 99.61124842 -0.30385913 C111.72208962 -0.31093785 123.83221856 -0.3649519 135.94281287 -0.43976067 C148.38788892 -0.51601774 160.83261203 -0.55465356 173.2779268 -0.55525696 C180.26106617 -0.55642426 187.24335631 -0.57328395 194.2262764 -0.63125229 C200.79788916 -0.68555642 207.36811749 -0.68801485 213.93997192 -0.65594101 C216.34777871 -0.65231325 218.75568222 -0.66568342 221.16328049 -0.69757843 C241.61071535 -0.95187419 241.61071535 -0.95187419 248.64349365 5.38104248 C250.09849033 7.0746651 251.52279683 8.79544658 252.90585327 10.54830933 C254.37651855 11.87327967 255.8718341 13.17223461 257.40585327 14.42330933 C260.12303438 16.7144917 261.68671155 18.58945369 263.90585327 21.54830933 C166.22585327 21.54830933 68.54585327 21.54830933 -32.09414673 21.54830933 C-28.24014684 17.05197613 -24.86000833 13.23355392 -20.53164673 9.36080933 C-19.16846313 8.13297729 -19.16846313 8.13297729 -17.77774048 6.88034058 C-16.89215454 6.11077026 -16.0065686 5.34119995 -15.09414673 4.54830933 C-14.42198938 3.85152006 -13.74983204 3.1547308 -13.05730629 2.43682671 C-8.75178993 -0.30721806 -5.0098123 -0.02524722 0 0 Z " fill="#63B5F6" transform="translate(140.09414672851563,95.45169067382813)"/>
<path d="M0 0 C50.16 0 100.32 0 152 0 C148.19037129 4.44456683 144.82795213 8.27433058 140.5625 12.125 C139.67691406 12.93195313 138.79132813 13.73890625 137.87890625 14.5703125 C136.92886719 15.37210937 135.97882813 16.17390625 135 17 C134.04814316 17.86529831 133.09628632 18.73059662 132.11558533 19.62211609 C126.94873553 23.24914238 121.35707518 22.61552339 115.27172852 22.47583008 C114.00274216 22.46680664 112.7337558 22.4577832 111.42631531 22.44848633 C107.96348983 22.42329351 104.50179604 22.36704706 101.03946042 22.3050406 C97.41483458 22.2454688 93.78996446 22.21470573 90.1650238 22.18083191 C83.30837319 22.11240885 76.45233006 22.0182358 69.59612936 21.91471261 C61.78737964 21.79806786 53.97838794 21.7102777 46.16924393 21.62486041 C30.11234377 21.44858429 14.05613232 21.2362373 -2 21 C-1.35474365 20.22205078 -0.7094873 19.44410156 -0.04467773 18.64257812 C2.83690671 14.91836678 3.2526505 11.64034755 3 7 C1.70208018 4.10960374 1.70208018 4.10960374 0 2 C0 1.34 0 0.68 0 0 Z " fill="#1565C0" transform="translate(252,395)"/>
<path d="M0 0 C46.53 0 93.06 0 141 0 C141 15 141 15 140 21 C93.47 21 46.94 21 -1 21 C0.485 17.535 0.485 17.535 2 14 C2.83528772 8.88947622 1.64830825 4.94492475 0 0 Z " fill="#63B4F5" transform="translate(317,267)"/>
<path d="M0 0 C18.31502382 -0.04670239 36.63003221 -0.0819802 54.94510269 -0.10362434 C63.44893635 -0.11394081 71.95273304 -0.12800822 80.45654297 -0.15087891 C87.86769534 -0.17080144 95.27882094 -0.18371374 102.68999934 -0.18817699 C106.61485149 -0.1907863 110.53962703 -0.19692699 114.46445465 -0.21146011 C118.15798692 -0.22502608 121.85141093 -0.22922465 125.54496574 -0.22621536 C127.54808303 -0.22702867 129.55118851 -0.23779547 131.55427551 -0.24884033 C132.74616989 -0.246091 133.93806427 -0.24334167 135.16607666 -0.24050903 C136.72021963 -0.24327441 136.72021963 -0.24327441 138.30575943 -0.24609566 C142.2106054 0.11057837 144.23708586 1.13185633 146.8125 4.0625 C148.49735624 8.23030228 148.19766568 11.69965679 147 16 C144.75410675 18.99452434 143.55130633 19.81623122 140 21 C138.41373944 21.10979635 136.8234174 21.16505853 135.23352051 21.18754578 C133.76187439 21.21128517 133.76187439 21.21128517 132.26049805 21.23550415 C131.18517822 21.24761932 130.1098584 21.2597345 129.00195312 21.2722168 C127.30141785 21.29653023 127.30141785 21.29653023 125.56652832 21.32133484 C115.1007869 21.46162723 104.63417099 21.54113804 94.1676712 21.60025311 C86.44027892 21.64474948 78.71467083 21.72176003 70.98807573 21.84183758 C64.88679594 21.93343134 58.78622608 21.96973213 52.68431091 21.98771095 C50.09752535 22.00362232 47.51078419 22.03680233 44.92445374 22.08786583 C22.13187522 22.51626207 22.13187522 22.51626207 15.10742188 16.17895508 C13.69835756 14.48506639 12.32485959 12.76053065 11 11 C9.53222394 9.67182974 8.03709515 8.37229358 6.5 7.125 C3.91981347 4.94933424 1.99580992 2.7180698 0 0 Z " fill="#63B4F5" transform="translate(108,395)"/>
<path d="M0 0 C2.16556927 -0.00217136 4.3306152 -0.02033283 6.49609375 -0.03930664 C35.5850217 -0.1590432 35.5850217 -0.1590432 44.83984375 7.68920898 C46.06640625 9.18530273 46.06640625 9.18530273 46.00390625 11.18530273 C44.55021758 14.28650523 42.14455345 15.71518041 39.05078125 17.06420898 C19.60585151 23.01326966 -3.08362655 23.10628391 -22.93359375 19.18530273 C-23.80113281 19.04092773 -24.66867188 18.89655273 -25.5625 18.74780273 C-30.4438739 17.84712089 -34.10856468 16.53220317 -37.93359375 13.18530273 C-38.80859375 10.43530273 -38.80859375 10.43530273 -38.93359375 8.18530273 C-27.99874256 -0.38525631 -13.25242314 -0.00148171 0 0 Z " fill="#0D47A1" transform="translate(241.93359375,266.814697265625)"/>
<path d="M0 0 C2.08153061 -0.01186678 4.16006456 -0.06102303 6.2409668 -0.11157227 C17.37962865 -0.25085279 17.37962865 -0.25085279 21.19213867 2.64038086 C24.03113367 6.41687981 24.08662081 8.47736366 23.82104492 13.04663086 C23.01222246 16.64205334 21.18978409 18.28218573 18.28588867 20.42553711 C13.7370793 22.6999418 7.529516 21.74571685 2.53588867 21.80053711 C0.62163086 21.85661133 0.62163086 21.85661133 -1.33129883 21.91381836 C-11.87323254 22.01285531 -11.87323254 22.01285531 -15.53833008 19.18334961 C-18.6308393 15.26358029 -19.11479944 12.33174047 -18.71411133 7.42553711 C-15.06361835 -1.15312139 -8.16483427 0.02204898 0 0 Z " fill="#63B4F5" transform="translate(274.714111328125,330.574462890625)"/>
</svg>
